<svg xmlns="http://www.w3.org/2000/svg" xmlns:xlink="http://www.w3.org/1999/xlink" width="200" zoomAndPan="magnify" viewBox="0 0 150 44.999999" height="60" preserveAspectRatio="xMidYMid meet" version="1.0"><defs><g/><clipPath id="f8d8442c46"><path d="M 0.953125 3.253906 L 27.507812 3.253906 L 27.507812 38.140625 L 0.953125 38.140625 Z M 0.953125 3.253906 " clip-rule="nonzero"/></clipPath><clipPath id="5e9bf0c807"><path d="M 3.203125 3.253906 L 25.148438 3.253906 C 25.742188 3.253906 26.316406 3.488281 26.738281 3.914062 C 27.160156 4.335938 27.398438 4.90625 27.398438 5.503906 L 27.398438 35.808594 C 27.398438 36.40625 27.160156 36.976562 26.738281 37.402344 C 26.316406 37.824219 25.742188 38.058594 25.148438 38.058594 L 3.203125 38.058594 C 2.609375 38.058594 2.035156 37.824219 1.613281 37.402344 C 1.191406 36.976562 0.953125 36.40625 0.953125 35.808594 L 0.953125 5.503906 C 0.953125 4.90625 1.191406 4.335938 1.613281 3.914062 C 2.035156 3.488281 2.609375 3.253906 3.203125 3.253906 " clip-rule="nonzero"/></clipPath></defs><g fill="#0ea4e9" fill-opacity="1"><g transform="translate(28.480353, 29.416342)"><g><path d="M 5.703125 0 L 2.046875 0 L 2.046875 -18.09375 L 4.953125 -18.09375 L 5.703125 -16.515625 C 6.304688 -17.085938 7.035156 -17.5625 7.890625 -17.9375 C 8.753906 -18.320312 9.6875 -18.515625 10.6875 -18.515625 C 11.34375 -18.515625 12.085938 -18.410156 12.921875 -18.203125 C 13.753906 -18.003906 14.53125 -17.628906 15.25 -17.078125 C 15.96875 -16.523438 16.570312 -15.753906 17.0625 -14.765625 C 17.550781 -13.785156 17.796875 -12.515625 17.796875 -10.953125 L 17.796875 0 L 14.3125 0 L 14.3125 -11 C 14.3125 -11.78125 14.191406 -12.441406 13.953125 -12.984375 C 13.710938 -13.523438 13.398438 -13.957031 13.015625 -14.28125 C 12.628906 -14.601562 12.1875 -14.832031 11.6875 -14.96875 C 11.195312 -15.113281 10.6875 -15.1875 10.15625 -15.1875 C 9.757812 -15.1875 9.300781 -15.109375 8.78125 -14.953125 C 8.269531 -14.804688 7.785156 -14.5625 7.328125 -14.21875 C 6.878906 -13.882812 6.492188 -13.457031 6.171875 -12.9375 C 5.859375 -12.425781 5.703125 -11.789062 5.703125 -11.03125 Z M 5.703125 0 "/></g></g></g><g fill="#0ea4e9" fill-opacity="1"><g transform="translate(48.649327, 29.416342)"><g><path d="M 10.546875 -3.78125 C 10.765625 -3.976562 10.960938 -4.203125 11.140625 -4.453125 C 11.316406 -4.710938 11.40625 -5.003906 11.40625 -5.328125 C 11.40625 -5.734375 11.257812 -6.070312 10.96875 -6.34375 C 10.6875 -6.625 10.335938 -6.859375 9.921875 -7.046875 C 9.503906 -7.234375 9.066406 -7.375 8.609375 -7.46875 C 8.160156 -7.570312 7.785156 -7.664062 7.484375 -7.75 C 6.648438 -7.945312 5.867188 -8.191406 5.140625 -8.484375 C 4.410156 -8.773438 3.773438 -9.125 3.234375 -9.53125 C 2.691406 -9.945312 2.257812 -10.4375 1.9375 -11 C 1.625 -11.570312 1.46875 -12.25 1.46875 -13.03125 C 1.46875 -13.757812 1.644531 -14.445312 2 -15.09375 C 2.351562 -15.738281 2.828125 -16.304688 3.421875 -16.796875 C 4.015625 -17.285156 4.707031 -17.675781 5.5 -17.96875 C 6.289062 -18.257812 7.128906 -18.40625 8.015625 -18.40625 C 8.796875 -18.40625 9.535156 -18.289062 10.234375 -18.0625 C 10.941406 -17.832031 11.578125 -17.519531 12.140625 -17.125 C 12.710938 -16.738281 13.191406 -16.269531 13.578125 -15.71875 C 13.972656 -15.164062 14.234375 -14.546875 14.359375 -13.859375 L 11.0625 -13.078125 C 10.914062 -13.679688 10.585938 -14.179688 10.078125 -14.578125 C 9.578125 -14.984375 8.890625 -15.1875 8.015625 -15.1875 C 7.710938 -15.1875 7.394531 -15.140625 7.0625 -15.046875 C 6.738281 -14.960938 6.4375 -14.832031 6.15625 -14.65625 C 5.882812 -14.476562 5.648438 -14.265625 5.453125 -14.015625 C 5.265625 -13.765625 5.171875 -13.472656 5.171875 -13.140625 C 5.171875 -12.796875 5.273438 -12.492188 5.484375 -12.234375 C 5.703125 -11.984375 5.960938 -11.773438 6.265625 -11.609375 C 6.566406 -11.453125 6.894531 -11.320312 7.25 -11.21875 C 7.601562 -11.113281 7.929688 -11.023438 8.234375 -10.953125 C 9.566406 -10.628906 10.675781 -10.273438 11.5625 -9.890625 C 12.445312 -9.515625 13.148438 -9.097656 13.671875 -8.640625 C 14.203125 -8.191406 14.570312 -7.695312 14.78125 -7.15625 C 15 -6.613281 15.109375 -6.003906 15.109375 -5.328125 C 15.109375 -4.523438 14.925781 -3.769531 14.5625 -3.0625 C 14.195312 -2.351562 13.691406 -1.738281 13.046875 -1.21875 C 12.410156 -0.707031 11.644531 -0.304688 10.75 -0.015625 C 9.851562 0.273438 8.890625 0.421875 7.859375 0.421875 C 6.296875 0.421875 4.898438 0.0351562 3.671875 -0.734375 C 2.453125 -1.503906 1.628906 -2.53125 1.203125 -3.8125 L 4.3125 -5.21875 C 4.707031 -4.332031 5.21875 -3.734375 5.84375 -3.421875 C 6.476562 -3.109375 7.203125 -2.953125 8.015625 -2.953125 C 9.015625 -2.953125 9.859375 -3.226562 10.546875 -3.78125 Z M 10.546875 -3.78125 "/></g></g></g><g fill="#0ea4e9" fill-opacity="1"><g transform="translate(64.890266, 29.416342)"><g><path d="M 10.546875 -3.78125 C 10.765625 -3.976562 10.960938 -4.203125 11.140625 -4.453125 C 11.316406 -4.710938 11.40625 -5.003906 11.40625 -5.328125 C 11.40625 -5.734375 11.257812 -6.070312 10.96875 -6.34375 C 10.6875 -6.625 10.335938 -6.859375 9.921875 -7.046875 C 9.503906 -7.234375 9.066406 -7.375 8.609375 -7.46875 C 8.160156 -7.570312 7.785156 -7.664062 7.484375 -7.75 C 6.648438 -7.945312 5.867188 -8.191406 5.140625 -8.484375 C 4.410156 -8.773438 3.773438 -9.125 3.234375 -9.53125 C 2.691406 -9.945312 2.257812 -10.4375 1.9375 -11 C 1.625 -11.570312 1.46875 -12.25 1.46875 -13.03125 C 1.46875 -13.757812 1.644531 -14.445312 2 -15.09375 C 2.351562 -15.738281 2.828125 -16.304688 3.421875 -16.796875 C 4.015625 -17.285156 4.707031 -17.675781 5.5 -17.96875 C 6.289062 -18.257812 7.128906 -18.40625 8.015625 -18.40625 C 8.796875 -18.40625 9.535156 -18.289062 10.234375 -18.0625 C 10.941406 -17.832031 11.578125 -17.519531 12.140625 -17.125 C 12.710938 -16.738281 13.191406 -16.269531 13.578125 -15.71875 C 13.972656 -15.164062 14.234375 -14.546875 14.359375 -13.859375 L 11.0625 -13.078125 C 10.914062 -13.679688 10.585938 -14.179688 10.078125 -14.578125 C 9.578125 -14.984375 8.890625 -15.1875 8.015625 -15.1875 C 7.710938 -15.1875 7.394531 -15.140625 7.0625 -15.046875 C 6.738281 -14.960938 6.4375 -14.832031 6.15625 -14.65625 C 5.882812 -14.476562 5.648438 -14.265625 5.453125 -14.015625 C 5.265625 -13.765625 5.171875 -13.472656 5.171875 -13.140625 C 5.171875 -12.796875 5.273438 -12.492188 5.484375 -12.234375 C 5.703125 -11.984375 5.960938 -11.773438 6.265625 -11.609375 C 6.566406 -11.453125 6.894531 -11.320312 7.25 -11.21875 C 7.601562 -11.113281 7.929688 -11.023438 8.234375 -10.953125 C 9.566406 -10.628906 10.675781 -10.273438 11.5625 -9.890625 C 12.445312 -9.515625 13.148438 -9.097656 13.671875 -8.640625 C 14.203125 -8.191406 14.570312 -7.695312 14.78125 -7.15625 C 15 -6.613281 15.109375 -6.003906 15.109375 -5.328125 C 15.109375 -4.523438 14.925781 -3.769531 14.5625 -3.0625 C 14.195312 -2.351562 13.691406 -1.738281 13.046875 -1.21875 C 12.410156 -0.707031 11.644531 -0.304688 10.75 -0.015625 C 9.851562 0.273438 8.890625 0.421875 7.859375 0.421875 C 6.296875 0.421875 4.898438 0.0351562 3.671875 -0.734375 C 2.453125 -1.503906 1.628906 -2.53125 1.203125 -3.8125 L 4.3125 -5.21875 C 4.707031 -4.332031 5.21875 -3.734375 5.84375 -3.421875 C 6.476562 -3.109375 7.203125 -2.953125 8.015625 -2.953125 C 9.015625 -2.953125 9.859375 -3.226562 10.546875 -3.78125 Z M 10.546875 -3.78125 "/></g></g></g><g fill="#0ea4e9" fill-opacity="1"><g transform="translate(81.131206, 29.416342)"><g><path d="M 5.78125 0 L 2.109375 0 L 2.109375 -18.09375 L 5.03125 -18.09375 L 5.78125 -16.546875 C 6.226562 -17.078125 6.765625 -17.535156 7.390625 -17.921875 C 8.023438 -18.316406 8.796875 -18.515625 9.703125 -18.515625 C 10.054688 -18.515625 10.453125 -18.46875 10.890625 -18.375 C 11.335938 -18.289062 11.789062 -18.140625 12.25 -17.921875 C 12.71875 -17.710938 13.164062 -17.425781 13.59375 -17.0625 C 14.03125 -16.695312 14.398438 -16.222656 14.703125 -15.640625 C 15.128906 -16.421875 15.773438 -17.09375 16.640625 -17.65625 C 17.515625 -18.226562 18.441406 -18.515625 19.421875 -18.515625 C 20.078125 -18.515625 20.769531 -18.410156 21.5 -18.203125 C 22.226562 -18.003906 22.90625 -17.628906 23.53125 -17.078125 C 24.164062 -16.523438 24.679688 -15.753906 25.078125 -14.765625 C 25.484375 -13.785156 25.6875 -12.515625 25.6875 -10.953125 L 25.6875 0 L 22.25 0 L 22.25 -11 C 22.25 -12.5625 21.925781 -13.648438 21.28125 -14.265625 C 20.644531 -14.878906 19.796875 -15.1875 18.734375 -15.1875 C 17.929688 -15.1875 17.226562 -14.84375 16.625 -14.15625 C 16.019531 -13.476562 15.71875 -12.410156 15.71875 -10.953125 L 15.71875 0 L 12.28125 0 L 12.28125 -11 C 12.28125 -12.5625 11.957031 -13.648438 11.3125 -14.265625 C 10.675781 -14.878906 9.828125 -15.1875 8.765625 -15.1875 C 8.003906 -15.1875 7.34375 -14.894531 6.78125 -14.3125 C 6.21875 -13.738281 5.882812 -12.832031 5.78125 -11.59375 Z M 5.78125 0 "/></g></g></g><g fill="#0ea4e9" fill-opacity="1"><g transform="translate(109.005177, 29.416342)"><g><path d="M 19.265625 -18.09375 L 19.265625 0 L 16.171875 0 L 15.609375 -2.078125 C 14.972656 -1.242188 14.164062 -0.613281 13.1875 -0.1875 C 12.207031 0.238281 11.210938 0.453125 10.203125 0.453125 C 8.941406 0.453125 7.765625 0.207031 6.671875 -0.28125 C 5.578125 -0.769531 4.617188 -1.441406 3.796875 -2.296875 C 2.972656 -3.160156 2.320312 -4.171875 1.84375 -5.328125 C 1.375 -6.484375 1.140625 -7.71875 1.140625 -9.03125 C 1.140625 -10.34375 1.375 -11.578125 1.84375 -12.734375 C 2.320312 -13.890625 2.972656 -14.894531 3.796875 -15.75 C 4.617188 -16.613281 5.578125 -17.289062 6.671875 -17.78125 C 7.765625 -18.269531 8.941406 -18.515625 10.203125 -18.515625 C 11.210938 -18.515625 12.179688 -18.316406 13.109375 -17.921875 C 14.046875 -17.535156 14.878906 -16.925781 15.609375 -16.09375 L 16.171875 -18.09375 Z M 10.203125 -2.796875 C 10.929688 -2.796875 11.625 -2.957031 12.28125 -3.28125 C 12.9375 -3.613281 13.503906 -4.0625 13.984375 -4.625 C 14.460938 -5.195312 14.835938 -5.859375 15.109375 -6.609375 C 15.390625 -7.367188 15.53125 -8.175781 15.53125 -9.03125 C 15.53125 -9.882812 15.390625 -10.6875 15.109375 -11.4375 C 14.835938 -12.195312 14.460938 -12.859375 13.984375 -13.421875 C 13.503906 -13.992188 12.9375 -14.441406 12.28125 -14.765625 C 11.625 -15.097656 10.929688 -15.265625 10.203125 -15.265625 C 9.472656 -15.265625 8.78125 -15.097656 8.125 -14.765625 C 7.46875 -14.441406 6.898438 -13.992188 6.421875 -13.421875 C 5.941406 -12.859375 5.5625 -12.195312 5.28125 -11.4375 C 5.007812 -10.6875 4.875 -9.882812 4.875 -9.03125 C 4.875 -8.175781 5.007812 -7.367188 5.28125 -6.609375 C 5.5625 -5.859375 5.941406 -5.195312 6.421875 -4.625 C 6.898438 -4.0625 7.46875 -3.613281 8.125 -3.28125 C 8.78125 -2.957031 9.472656 -2.796875 10.203125 -2.796875 Z M 10.203125 -2.796875 "/></g></g></g><g fill="#0ea4e9" fill-opacity="1"><g transform="translate(129.891777, 29.416342)"><g><path d="M 5.703125 0 L 2.046875 0 L 2.046875 -18.09375 L 4.953125 -18.09375 L 5.703125 -16.515625 C 6.304688 -17.085938 7.035156 -17.5625 7.890625 -17.9375 C 8.753906 -18.320312 9.6875 -18.515625 10.6875 -18.515625 C 11.34375 -18.515625 12.085938 -18.410156 12.921875 -18.203125 C 13.753906 -18.003906 14.53125 -17.628906 15.25 -17.078125 C 15.96875 -16.523438 16.570312 -15.753906 17.0625 -14.765625 C 17.550781 -13.785156 17.796875 -12.515625 17.796875 -10.953125 L 17.796875 0 L 14.3125 0 L 14.3125 -11 C 14.3125 -11.78125 14.191406 -12.441406 13.953125 -12.984375 C 13.710938 -13.523438 13.398438 -13.957031 13.015625 -14.28125 C 12.628906 -14.601562 12.1875 -14.832031 11.6875 -14.96875 C 11.195312 -15.113281 10.6875 -15.1875 10.15625 -15.1875 C 9.757812 -15.1875 9.300781 -15.109375 8.78125 -14.953125 C 8.269531 -14.804688 7.785156 -14.5625 7.328125 -14.21875 C 6.878906 -13.882812 6.492188 -13.457031 6.171875 -12.9375 C 5.859375 -12.425781 5.703125 -11.789062 5.703125 -11.03125 Z M 5.703125 0 "/></g></g></g><g clip-path="url(#f8d8442c46)"><g clip-path="url(#5e9bf0c807)"><path fill="#0ea4e9" d="M 0.953125 3.253906 L 27.507812 3.253906 L 27.507812 38.140625 L 0.953125 38.140625 Z M 0.953125 3.253906 " fill-opacity="1" fill-rule="nonzero"/></g></g><g fill="#ffffff" fill-opacity="1"><g transform="translate(6.820828, 33.354316)"><g><path d="M 9.28125 -23.3125 L 9.28125 -3.21875 L 11.234375 -3.21875 L 11.234375 0 L 3.40625 0 L 3.40625 -3.21875 L 5.390625 -3.21875 L 5.390625 -23.3125 L 3.40625 -23.3125 L 3.40625 -26.53125 L 11.234375 -26.53125 L 11.234375 -23.3125 Z M 9.28125 -23.3125 "/></g></g></g></svg>